<svg width="1272" height="1610" xmlns="http://www.w3.org/2000/svg" xmlns:xlink="http://www.w3.org/1999/xlink" xml:space="preserve" overflow="hidden"><g transform="translate(-2160 -319)"><path d="M2600.17 1676.48 2603.5 1676.92 2603.5 1676.48 3166.36 1676.48C3190.46 1676.48 3209.99 1689.1 3209.99 1704.67 3209.99 1720.24 3190.46 1732.86 3166.36 1732.86L2603.5 1732.86 2603.5 1732.42 2600.17 1732.86C2576.07 1732.86 2556.54 1720.24 2556.54 1704.67 2556.54 1689.1 2576.07 1676.48 2600.17 1676.48ZM2365.14 1598.1 2365.14 1598.1 2339.95 1600.11C2282.98 1609.34 2240.13 1649.25 2240.13 1697.08 2240.13 1744.91 2282.98 1784.82 2339.95 1794.05L2352.85 1795.08 2352.85 1676.48 2505.57 1676.48 2505.57 1796.06 3248.53 1796.06 3248.53 1796.34 3293.25 1796.34 3279.22 1774.26C3265.97 1748.35 3259.71 1718.2 3262.75 1686.74 3265.83 1654.77 3278.07 1625.98 3296.51 1602.89L3300.6 1599.05 3226.26 1599.05 3177.37 1599.05 2420.06 1599.05 2408.89 1598.1ZM2757.25 974.508C2728.59 974.096 2644.59 994.379 2667.85 1042.3 2680.91 1069.22 2712.8 1081.82 2748.36 1126.54 2787.19 1175.38 2782.81 1219.68 2702.01 1278.33 2621.2 1336.98 2434.26 1419.74 2312.83 1520.03L2801.21 1520.03C2837.38 1465.48 2892.03 1389.62 2951.03 1286.66 3010.03 1183.71 2933.34 1145.66 2909.73 1128.76 2892.85 1116.67 2793.17 1068.02 2755.9 1042.64 2718.63 1017.27 2792.8 974.508 2792.8 974.508 2792.8 974.508 2760.72 974.508 2757.25 974.508ZM2800.97 551.914C2846 551.914 2882.49 588.402 2882.49 633.413 2882.49 678.423 2846 714.911 2800.97 714.911 2755.95 714.911 2719.45 678.423 2719.45 633.413 2719.45 588.402 2755.95 551.914 2800.97 551.914ZM2799.74 470.419C2758.02 470.735 2716.41 486.963 2684.82 519.031 2621.63 583.165 2622.41 686.366 2686.56 749.538 2741.54 803.679 2780.51 874.077 2803.45 960.732 2825.08 873.74 2862.97 802.76 2917.13 747.794 2980.32 683.66 2979.54 580.458 2915.39 517.287 2883.31 485.701 2841.47 470.104 2799.74 470.419ZM3130.2 322.5 3176.69 322.5 3377.59 322.5C3405.33 322.5 3427.82 341.421 3427.82 364.762L3427.82 492.54 3427.82 538.794 3427.82 1379.91 3428.5 1382.75 3428.5 1556.79C3428.5 1574.29 3415.85 1589.31 3397.82 1595.73L3384.24 1598.03 3384.24 1598.1 3383.85 1598.1 3378.27 1599.05 3370.37 1599.05 3350.18 1608.89C3323.84 1626.86 3305.33 1656.11 3302.01 1690.52 3298.69 1724.94 3311.26 1757.18 3333.68 1779.85L3357.98 1798.17 3360.93 1798.55C3376.59 1802.83 3387.58 1812.85 3387.58 1824.52 3387.58 1840.09 3368.04 1852.71 3343.94 1852.71L3248.53 1852.71 3180.21 1852.71 3159.05 1852.71 3130.88 1852.71 2505.57 1852.71 2505.57 1922.5 2429.21 1884.32 2352.85 1922.5 2352.85 1851.3 2325.87 1848.58C2233.2 1829.62 2163.5 1747.66 2163.5 1649.42L2163.5 526.329C2163.5 414.052 2254.54 323.034 2366.85 323.034L2419.01 323.034 2420.06 322.946 3127.99 322.946Z" stroke="#2B4162" stroke-width="6.875" stroke-miterlimit="8" fill="#B4EDD2" fill-rule="evenodd"/></g></svg>