<svg width="249" height="250" xmlns="http://www.w3.org/2000/svg" xmlns:xlink="http://www.w3.org/1999/xlink" xml:space="preserve" overflow="hidden"><g transform="translate(-97 -36)"><path d="M210.094 57.0625C210.077 51.3396 205.442 46.7046 199.719 46.6875L153.031 46.6875 153.031 38.9062C153.023 31.7472 147.222 25.9461 140.062 25.9375L108.938 25.9375C101.778 25.9461 95.9773 31.7472 95.9688 38.9062L95.9688 46.6875 49.2812 46.6875C43.5584 46.7046 38.9234 51.3396 38.9062 57.0625L38.9062 72.625 49.4083 72.625 56.5671 213.346C56.9178 220.241 62.6087 225.653 69.5125 225.656L179.487 225.656C186.393 225.655 192.087 220.243 192.438 213.346L199.592 72.625 210.094 72.625ZM101.156 38.9062C101.156 34.6087 104.64 31.125 108.938 31.125L140.062 31.125C144.36 31.125 147.844 34.6087 147.844 38.9062L147.844 46.6875 101.156 46.6875ZM187.253 213.082C187.043 217.219 183.629 220.466 179.487 220.469L69.5125 220.469C65.3643 220.474 61.9413 217.224 61.7312 213.082L54.6036 72.625 194.407 72.625ZM204.906 67.4375 44.0938 67.4375 44.0938 57.0625C44.0938 54.1974 46.4162 51.875 49.2812 51.875L199.719 51.875C202.584 51.875 204.906 54.1974 204.906 57.0625Z" transform="matrix(1 0 0 1.00402 97 36)"/><path d="M93.375 202.312 93.5047 202.312C94.9354 202.243 96.0388 201.026 95.969 199.595 95.9688 199.594 95.9688 199.593 95.9688 199.592L90.7812 93.2479C90.7097 91.8154 89.4903 90.7123 88.0578 90.7838 86.6253 90.8554 85.5222 92.0748 85.5938 93.5073L90.7812 199.851C90.8518 201.232 91.9925 202.314 93.375 202.312Z" transform="matrix(1 0 0 1.00402 97 36)"/><path d="M124.5 202.312C125.933 202.312 127.094 201.151 127.094 199.719L127.094 93.375C127.094 91.9425 125.933 90.7812 124.5 90.7812 123.067 90.7812 121.906 91.9425 121.906 93.375L121.906 199.719C121.906 201.151 123.067 202.312 124.5 202.312Z" transform="matrix(1 0 0 1.00402 97 36)"/><path d="M155.498 202.312 155.625 202.312C157.009 202.314 158.151 201.229 158.219 199.846L163.406 93.5021C163.478 92.0696 162.375 90.8502 160.942 90.7787 159.51 90.7071 158.29 91.8102 158.219 93.2427L153.031 199.586C152.957 201.017 154.056 202.237 155.486 202.312 155.49 202.312 155.494 202.312 155.498 202.312Z" transform="matrix(1 0 0 1.00402 97 36)"/></g></svg>